<?xml version="1.0" encoding="UTF-8"?>
<svg id="Layer_2" data-name="Layer 2" xmlns="http://www.w3.org/2000/svg" viewBox="0 0 172.15 18.65">
  <defs>
    <style>
      .cls-1 {
        fill: #fefefe;
      }
    </style>
  </defs>
  <g id="Component_8_19" data-name="Component 8 19">
    <g>
      <polygon class="cls-1" points="8.75 8.58 4 .81 0 .81 0 18.3 4 18.3 4 8.13 8.52 15.55 8.97 15.55 13.5 8.13 13.5 18.3 17.5 18.3 17.5 .81 13.5 .81 8.75 8.58"/>
      <path class="cls-1" d="m30.35.46c-5.02,0-9.1,3.95-9.1,9.1s4.07,9.1,9.1,9.1,9.1-3.95,9.1-9.1S35.37.46,30.35.46Zm0,14.3c-2.85,0-5.1-2.08-5.1-5.2s2.25-5.2,5.1-5.2,5.1,2.07,5.1,5.2-2.25,5.2-5.1,5.2Z"/>
      <polygon class="cls-1" points="52.95 10.3 46.2 .81 43.2 .81 43.2 18.3 47.2 18.3 47.2 8.8 53.95 18.3 56.95 18.3 56.95 .81 52.95 .81 52.95 10.3"/>
      <path class="cls-1" d="m70,12.05h4.67c-.62,1.67-2.15,2.7-4.47,2.7-3.4,0-5.5-2.17-5.5-5.15s2.2-5.25,5.15-5.25c1.97,0,3.55.9,4.27,2.05l3.4-1.95c-1.47-2.35-4.3-4-7.65-4-5.15,0-9.17,4.05-9.17,9.12s3.95,9.07,9.45,9.07c4.9,0,8.62-3.25,8.62-8.6v-1.5h-8.77v3.5Z"/>
      <path class="cls-1" d="m90.87.46c-5.02,0-9.1,3.95-9.1,9.1s4.07,9.1,9.1,9.1,9.1-3.95,9.1-9.1S95.9.46,90.87.46Zm0,14.3c-2.85,0-5.1-2.08-5.1-5.2s2.25-5.2,5.1-5.2,5.1,2.07,5.1,5.2-2.25,5.2-5.1,5.2Z"/>
      <path class="cls-1" d="m112.07.46c-5.02,0-9.1,3.95-9.1,9.1s4.07,9.1,9.1,9.1,9.1-3.95,9.1-9.1S117.1.46,112.07.46Zm0,14.3c-2.85,0-5.1-2.08-5.1-5.2s2.25-5.2,5.1-5.2,5.1,2.07,5.1,5.2-2.25,5.2-5.1,5.2Z"/>
      <path class="cls-1" d="m131.3,7.85c-2.72-.83-3.15-1.38-3.15-2.17,0-.7.62-1.32,1.87-1.32,1.6,0,2.42.77,3.02,2.02l3.37-1.97c-1.27-2.57-3.52-3.95-6.4-3.95-3.02,0-5.87,1.95-5.87,5.32s2.55,4.6,5.15,5.32c2.62.72,3.62,1.15,3.62,2.22,0,.67-.47,1.42-2.38,1.42s-3.05-.97-3.67-2.42l-3.45,2c.97,2.57,3.32,4.32,7,4.32s6.5-2,6.5-5.37c0-3.7-2.97-4.62-5.62-5.42Z"/>
      <polygon class="cls-1" points="144.3 11.35 150.55 11.35 150.55 7.55 144.3 7.55 144.3 4.66 151.17 4.66 151.17 .81 140.3 .81 140.3 18.3 151.3 18.3 151.3 14.45 144.3 14.45 144.3 11.35"/>
      <polygon class="cls-1" points="160.17 0 159.13 0 159.13 6.3 162.73 6.3 162.73 5.31 160.17 5.31 160.17 0"/>
      <path class="cls-1" d="m165.27.54l-.97.29v.97h-.83v.94h.83v2.16c0,1.17.59,1.58,2.09,1.4v-.87c-.74.04-1.12.04-1.12-.53v-2.16h1.12v-.94h-1.12V.54Z"/>
      <path class="cls-1" d="m171.18,0v2.44c-.34-.47-.87-.76-1.58-.76-1.22,0-2.24,1.03-2.24,2.37s1.02,2.37,2.24,2.37c.7,0,1.23-.29,1.58-.77v.65h.97V0h-.97Zm-1.42,5.49c-.81,0-1.42-.6-1.42-1.44s.61-1.44,1.42-1.44,1.42.6,1.42,1.44-.61,1.44-1.42,1.44Z"/>
    </g>
  </g>
</svg>